<svg width="34" height="30" viewBox="0 0 34 30" fill="none" xmlns="http://www.w3.org/2000/svg">
<path d="M13.6663 21.6667V20H2.01634L1.99967 26.6667C1.99967 28.5167 3.48301 30 5.33301 30H28.6663C30.5163 30 31.9997 28.5167 31.9997 26.6667V20H20.333V21.6667H13.6663ZM30.333 6.66667H23.6497V3.33333L20.3163 0H13.6497L10.3163 3.33333V6.66667H3.66634C1.83301 6.66667 0.333008 8.16667 0.333008 10V15C0.333008 16.85 1.81634 18.3333 3.66634 18.3333H13.6663V15H20.333V18.3333H30.333C32.1663 18.3333 33.6663 16.8333 33.6663 15V10C33.6663 8.16667 32.1663 6.66667 30.333 6.66667ZM20.333 6.66667H13.6663V3.33333H20.333V6.66667Z" fill="#fff"/>
</svg>
