<svg width="28" height="25" viewBox="0 0 28 25" fill="none" xmlns="http://www.w3.org/2000/svg">
<path d="M10.0003 0.666626L7.56033 3.33329H3.33366C1.86699 3.33329 0.666992 4.53329 0.666992 5.99996V22C0.666992 23.4666 1.86699 24.6666 3.33366 24.6666H24.667C26.1337 24.6666 27.3337 23.4666 27.3337 22V5.99996C27.3337 4.53329 26.1337 3.33329 24.667 3.33329H20.4403L18.0003 0.666626H10.0003ZM14.0003 20.6666C10.3203 20.6666 7.33366 17.68 7.33366 14C7.33366 10.32 10.3203 7.33329 14.0003 7.33329C17.6803 7.33329 20.667 10.32 20.667 14C20.667 17.68 17.6803 20.6666 14.0003 20.6666Z" fill="#BDBDBD"/>
</svg>
